<svg width="24" height="24" viewBox="0 0 24 24" fill="none" xmlns="http://www.w3.org/2000/svg">
<g clip-path="url(#clip0)">
<path d="M22.623 17.9003L19.0903 15.7811C18.2025 15.2481 17.0507 15.5359 16.5183 16.4241C16.4554 16.5287 16.7455 16.0457 15.9045 17.4461C15.6677 17.8408 15.1798 18.0054 14.7524 17.8342C10.9923 16.3304 7.66915 13.0078 6.16531 9.24771C5.99411 8.82016 6.15872 8.33218 6.55349 8.09543C7.95388 7.25461 7.47085 7.54465 7.5754 7.48184C8.46365 6.94937 8.75149 5.79746 8.21847 4.90958L6.09921 1.37694C5.59476 0.536488 4.52872 0.226125 3.65256 0.664478L2.54313 1.21892C0.993694 1.99382 0.17668 3.72874 0.566144 5.41697C2.59367 14.2022 9.79775 21.4059 18.5831 23.4334C20.2712 23.8229 22.0061 23.0058 22.781 21.4564C23.5411 19.9357 23.2789 20.4605 23.3356 20.347C23.774 19.4708 23.4636 18.4048 22.623 17.9003Z" fill="#495B73"/>
<path d="M3.39716 2.91412C3.65588 2.91412 3.86591 2.7041 3.86591 2.44537C3.86591 2.18665 3.65588 1.97662 3.39716 1.97662C3.13843 1.97662 2.92841 2.18665 2.92841 2.44537C2.92841 2.7041 3.13843 2.91412 3.39716 2.91412Z" fill="black"/>
<path d="M6.70906 17.2909C10.0121 20.5936 14.0816 22.8756 18.4779 23.8902C20.3991 24.3337 22.3329 23.4009 23.2004 21.6662L23.755 20.5568C24.2994 19.4684 23.9083 18.1249 22.8644 17.4985L19.3318 15.3793C18.2211 14.7126 16.7826 15.0718 16.1164 16.1831L15.5027 17.2052C15.3837 17.4035 15.1414 17.4852 14.9264 17.3991C11.2579 15.9319 8.0677 12.7418 6.60066 9.07369C6.5146 8.85891 6.59627 8.61666 6.79475 8.49764C8.19495 7.65683 7.71211 7.94668 7.81648 7.88406C8.92756 7.21792 9.28754 5.77963 8.62067 4.66873L6.50123 1.13591C5.87483 0.0920255 4.53157 -0.29927 3.4432 0.245284L2.3334 0.799909C0.584195 1.6746 -0.330231 3.61661 0.109587 5.52237C1.12399 9.91854 3.40621 13.988 6.70906 17.2909ZM18.8493 16.1831L22.3819 18.3024C23.0083 18.6783 23.2431 19.4843 22.9162 20.1374L22.6701 20.63L16.6936 17.043L16.9203 16.6652C17.32 15.9987 18.1826 15.783 18.8493 16.1831ZM2.75271 1.63835L3.86251 1.08372C4.52095 0.754316 5.3246 0.997297 5.69722 1.61821L7.81666 5.15103C8.21656 5.81717 8.00141 6.67996 7.334 7.08004L6.9557 7.30728L4.83333 3.76804C4.70021 3.54612 4.41237 3.47397 4.19027 3.60728C3.96834 3.74039 3.8962 4.02823 4.02932 4.25034L6.15828 7.80038C5.67671 8.1827 5.4958 8.83639 5.73018 9.42177C6.49135 11.3252 7.71925 13.1567 9.28132 14.7186C10.8432 16.2803 12.675 17.5082 14.5782 18.2696C15.1643 18.504 15.8185 18.3227 16.2005 17.8406L22.2413 21.4659C21.5142 22.6822 20.0891 23.2995 18.6887 22.9767C10.1035 20.9955 3.00429 13.8963 1.0231 5.31162C0.681058 3.82938 1.39242 2.31877 2.75271 1.63835Z" fill="black"/>
</g>
<defs>
<clipPath id="clip0">
<rect width="24" height="24" fill="white"/>
</clipPath>
</defs>
</svg>
